<svg xmlns="http://www.w3.org/2000/svg" version="1.1" xmlns:xlink="http://www.w3.org/1999/xlink" xmlns:svgjs="http://svgjs.dev/svgjs" width="1500" height="196" viewBox="0 0 1500 196"><g transform="matrix(1,0,0,1,-0.9090909090909918,0.25969749999484293)"><svg viewBox="0 0 396 52" data-background-color="#ffffff" preserveAspectRatio="xMidYMid meet" height="196" width="1500" xmlns="http://www.w3.org/2000/svg" xmlns:xlink="http://www.w3.org/1999/xlink"><g id="tight-bounds" transform="matrix(1,0,0,1,0.2400000000000091,-0.06889933673332393)"><svg viewBox="0 0 395.52 52.137798673466634" height="52.137798673466634" width="395.52"><g><svg viewBox="0 0 489.64390440296313 64.54529558417232" height="52.137798673466634" width="395.52"><g transform="matrix(1,0,0,1,0,8.920514802154063)"><svg viewBox="0 0 395.52 46.704265979864196" height="46.704265979864196" width="395.52"><g id="textblocktransform"><svg viewBox="0 0 395.52 46.704265979864196" height="46.704265979864196" width="395.52" id="textblock"><g><svg viewBox="0 0 395.52 46.704265979864196" height="46.704265979864196" width="395.52"><g transform="matrix(1,0,0,1,0,0)"><svg width="395.52" viewBox="0.44 -36.45 312.79 36.940000000000005" height="46.704265979864196" data-palette-color="#82c3e0"><g class="wordmark-text-0" data-fill-palette-color="primary" id="text-0"><path d="M26.42 0L23.51-8.28 9.74-8.28 6.86 0 0.44 0 13.87-35.55 19.41-35.55 32.86 0 26.42 0ZM16.63-28L11.47-13.26 21.78-13.26 16.63-28ZM47.12 0L36.89 0 36.89-35.55 47.39-35.55Q52.1-35.55 55.75-33.45 59.4-31.35 61.4-27.49 63.4-23.63 63.4-18.65L63.4-18.65 63.4-16.87Q63.4-11.82 61.39-7.98 59.37-4.15 55.65-2.08 51.93 0 47.12 0L47.12 0ZM47.39-30.57L43.06-30.57 43.06-4.93 47.09-4.93Q51.95-4.93 54.55-7.97 57.15-11.01 57.2-16.7L57.2-16.7 57.2-18.68Q57.2-24.46 54.69-27.51 52.17-30.57 47.39-30.57L47.39-30.57ZM97.77-35.55L97.77 0 91.62 0 91.62-15.8 75.73-15.8 75.73 0 69.55 0 69.55-35.55 75.73-35.55 75.73-20.75 91.62-20.75 91.62-35.55 97.77-35.55ZM115.3 0L105.07 0 105.07-35.55 115.57-35.55Q120.28-35.55 123.93-33.45 127.58-31.35 129.58-27.49 131.58-23.63 131.58-18.65L131.58-18.65 131.58-16.87Q131.58-11.82 129.57-7.98 127.56-4.15 123.83-2.08 120.11 0 115.3 0L115.3 0ZM115.57-30.57L111.25-30.57 111.25-4.93 115.28-4.93Q120.13-4.93 122.73-7.97 125.33-11.01 125.38-16.7L125.38-16.7 125.38-18.68Q125.38-24.46 122.87-27.51 120.35-30.57 115.57-30.57L115.57-30.57ZM148.79 0.49L148.79 0.49Q143.15 0.49 139.65-3.06 136.15-6.62 136.15-12.52L136.15-12.52 136.15-13.26Q136.15-17.21 137.67-20.32 139.2-23.44 141.96-25.17 144.72-26.9 148.11-26.9L148.11-26.9Q153.51-26.9 156.45-23.46 159.39-20.02 159.39-13.72L159.39-13.72 159.39-11.33 142.13-11.33Q142.4-8.06 144.31-6.15 146.23-4.25 149.14-4.25L149.14-4.25Q153.21-4.25 155.78-7.54L155.78-7.54 158.97-4.49Q157.39-2.12 154.74-0.82 152.09 0.49 148.79 0.49ZM148.09-22.14L148.09-22.14Q145.64-22.14 144.14-20.43 142.64-18.73 142.23-15.67L142.23-15.67 153.53-15.67 153.53-16.11Q153.33-19.09 151.94-20.62 150.55-22.14 148.09-22.14ZM165.49-32.84L171.42-32.84 171.42-26.42 176.09-26.42 176.09-22.02 171.42-22.02 171.42-7.28Q171.42-5.76 172.02-5.09 172.62-4.42 174.16-4.42L174.16-4.42Q175.18-4.42 176.23-4.66L176.23-4.66 176.23-0.07Q174.21 0.49 172.33 0.49L172.33 0.49Q165.49 0.49 165.49-7.06L165.49-7.06 165.49-22.02 161.14-22.02 161.14-26.42 165.49-26.42 165.49-32.84ZM192.25 0.49L192.25 0.49Q186.61 0.49 183.1-3.06 179.6-6.62 179.6-12.52L179.6-12.52 179.6-13.26Q179.6-17.21 181.13-20.32 182.65-23.44 185.41-25.17 188.17-26.9 191.56-26.9L191.56-26.9Q196.96-26.9 199.9-23.46 202.84-20.02 202.84-13.72L202.84-13.72 202.84-11.33 185.58-11.33Q185.85-8.06 187.77-6.15 189.68-4.25 192.59-4.25L192.59-4.25Q196.66-4.25 199.23-7.54L199.23-7.54 202.43-4.49Q200.84-2.12 198.19-0.82 195.54 0.49 192.25 0.49ZM191.54-22.14L191.54-22.14Q189.1-22.14 187.59-20.43 186.09-18.73 185.68-15.67L185.68-15.67 196.98-15.67 196.98-16.11Q196.79-19.09 195.4-20.62 194-22.14 191.54-22.14ZM218.29-4.25L218.29-4.25Q220.51-4.25 221.98-5.54 223.44-6.84 223.54-8.74L223.54-8.74 229.13-8.74Q229.04-6.27 227.59-4.14 226.15-2 223.69-0.76 221.22 0.49 218.37 0.49L218.37 0.49Q212.82 0.49 209.58-3.1 206.33-6.69 206.33-13.01L206.33-13.01 206.33-13.62Q206.33-19.65 209.55-23.28 212.78-26.9 218.34-26.9L218.34-26.9Q223.05-26.9 226.02-24.16 228.99-21.41 229.13-16.94L229.13-16.94 223.54-16.94Q223.44-19.21 221.99-20.68 220.54-22.14 218.29-22.14L218.29-22.14Q215.41-22.14 213.85-20.06 212.29-17.97 212.26-13.72L212.26-13.72 212.26-12.77Q212.26-8.47 213.81-6.36 215.36-4.25 218.29-4.25ZM235.11-32.84L241.04-32.84 241.04-26.42 245.71-26.42 245.71-22.02 241.04-22.02 241.04-7.28Q241.04-5.76 241.64-5.09 242.24-4.42 243.78-4.42L243.78-4.42Q244.8-4.42 245.85-4.66L245.85-4.66 245.85-0.07Q243.83 0.49 241.95 0.49L241.95 0.49Q235.11 0.49 235.11-7.06L235.11-7.06 235.11-22.02 230.77-22.02 230.77-26.42 235.11-26.42 235.11-32.84ZM256.54-26.42L256.54 0 250.61 0 250.61-26.42 256.54-26.42ZM250.25-33.28L250.25-33.28Q250.25-34.64 251.11-35.55 251.98-36.45 253.59-36.45 255.2-36.45 256.08-35.55 256.96-34.64 256.96-33.28L256.96-33.28Q256.96-31.93 256.08-31.04 255.2-30.15 253.59-30.15 251.98-30.15 251.11-31.04 250.25-31.93 250.25-33.28ZM261.89-13.16L261.89-13.45Q261.89-17.33 263.43-20.45 264.97-23.56 267.75-25.23 270.53-26.9 274.14-26.9L274.14-26.9Q279.49-26.9 282.82-23.46 286.16-20.02 286.43-14.33L286.43-14.33 286.45-12.94Q286.45-9.03 284.95-5.96 283.45-2.88 280.65-1.2 277.86 0.49 274.19 0.49L274.19 0.49Q268.6 0.49 265.25-3.23 261.89-6.96 261.89-13.16L261.89-13.16ZM267.82-12.94L267.82-12.94Q267.82-8.86 269.51-6.56 271.19-4.25 274.19-4.25 277.2-4.25 278.87-6.59 280.54-8.94 280.54-13.45L280.54-13.45Q280.54-17.46 278.82-19.8 277.1-22.14 274.14-22.14L274.14-22.14Q271.24-22.14 269.53-19.84 267.82-17.53 267.82-12.94ZM291.38-26.42L296.97-26.42 297.14-23.36Q300.07-26.9 304.83-26.9L304.83-26.9Q313.08-26.9 313.23-17.46L313.23-17.46 313.23 0 307.3 0 307.3-17.11Q307.3-19.63 306.21-20.84 305.12-22.05 302.66-22.05L302.66-22.05Q299.07-22.05 297.31-18.8L297.31-18.8 297.31 0 291.38 0 291.38-26.42Z" fill="#82c3e0" data-fill-palette-color="primary"></path></g></svg></g></svg></g></svg></g></svg></g><g transform="matrix(1,0,0,1,406.5457562954624,0)"><svg viewBox="0 0 83.09814810750072 64.54529558417232" height="64.54529558417232" width="83.09814810750072"><g><svg xmlns="http://www.w3.org/2000/svg" xmlns:xlink="http://www.w3.org/1999/xlink" version="1.1" x="0" y="0" viewBox="0 11.164 99.99798283344653 77.672" enable-background="new 0 0 100 100" xml:space="preserve" height="64.54529558417232" width="83.09814810750072" class="icon-icon-0" data-fill-palette-color="accent" id="icon-0"><path d="M22.498 11.164c-9.399 0-22.473 5.554-22.498 24.583h12.834c0.009-8.006 4.452-11.766 10.262-11.766 5.127 0 8.63 4.101 8.63 10.989 0 13.279-14.611 15.329-14.611 30.624 0 14.441 11.322 23.242 23.737 23.242 10.57 0 19.841-6.323 24.882-21.96 1.623-5.127 4.187-12.646 11.518-12.646 5.058 0 9.929 3.589 9.929 8.972s-3.076 9.057-6.785 12.766l9.809 8.263c5.349-6.588 9.715-12.655 9.792-21.029 0.12-12.732-10.766-21.618-23.122-21.618-15.073 0-20.627 13.073-23.02 20.507-2.307 7.092-5.759 13.928-13.005 13.928-4.375 0-10.92-2.478-10.92-10.399 0-11.219 14.441-13.954 14.441-30.949C44.373 19.111 33.692 11.164 22.498 11.164z" fill="#496a79" data-fill-palette-color="accent"></path></svg></g></svg></g></svg></g><defs></defs></svg><rect width="395.52" height="52.137798673466634" fill="none" stroke="none" visibility="hidden"></rect></g></svg></g></svg>