<svg xmlns="http://www.w3.org/2000/svg" xmlns:xlink="http://www.w3.org/1999/xlink" width="190" zoomAndPan="magnify" viewBox="0 0 142.5 37.5" height="50" preserveAspectRatio="xMidYMid meet" version="1.0"><defs><g/><clipPath id="a72e4a056a"><path d="M 0.898438 0 L 30 0 L 30 37 L 0.898438 37 Z M 0.898438 0 " clip-rule="nonzero"/></clipPath></defs><g clip-path="url(#a72e4a056a)"><path fill="#86cae6" d="M 15.175781 0.0234375 C 15.960938 0.0234375 16.6875 0.324219 17.339844 0.722656 C 17.789062 0.566406 18.253906 0.453125 18.734375 0.453125 C 20.054688 0.449219 21.320312 1.199219 21.984375 2.058594 C 23.742188 2.417969 25.113281 3.753906 25.117188 5.460938 C 25.117188 5.5625 25.105469 5.65625 25.097656 5.746094 C 25.808594 6.273438 26.3125 7.03125 26.441406 7.925781 C 26.566406 8.773438 26.324219 9.589844 25.832031 10.25 C 25.832031 10.253906 25.835938 10.261719 25.835938 10.269531 C 25.855469 10.269531 25.875 10.273438 25.890625 10.277344 C 27.023438 10.496094 27.851562 10.734375 28.441406 11.03125 C 28.96875 11.296875 29.21875 11.582031 29.359375 12.101562 C 30.558594 16.546875 29.570312 21.632812 26.027344 25.097656 C 25.089844 26.015625 24.796875 26.839844 24.738281 27.8125 C 24.683594 28.789062 24.914062 29.917969 25.125 31.246094 C 25.21875 31.84375 25.101562 32.453125 24.78125 32.976562 C 24.457031 33.496094 23.957031 33.9375 23.300781 34.351562 C 20.667969 36.019531 16.1875 37.105469 12.832031 36.679688 C 12.214844 36.601562 11.644531 36.390625 11.21875 35.976562 C 10.789062 35.5625 10.535156 34.976562 10.425781 34.261719 C 10.308594 33.527344 10.191406 33.007812 10.015625 32.757812 C 9.839844 32.507812 9.605469 32.359375 8.804688 32.371094 C 7.992188 32.386719 7.136719 32.476562 6.332031 32.175781 C 5.527344 31.878906 4.898438 31.078125 4.761719 29.8125 C 4.699219 29.242188 4.804688 29.296875 4.421875 28.800781 C 4.035156 28.300781 3.761719 27.933594 3.6875 27.441406 C 3.644531 27.160156 3.816406 26.902344 3.914062 26.636719 C 3.078125 26.496094 2.941406 25.65625 3.15625 24.976562 L 3.625 23.488281 L 1.796875 22.804688 C 1.265625 22.609375 0.917969 22.140625 0.832031 21.652344 C 0.746094 21.167969 0.886719 20.660156 1.214844 20.261719 C 2.257812 18.980469 3.195312 18.3125 3.722656 17.113281 C 4.003906 16.46875 3.917969 15.925781 3.757812 15.101562 C 3.628906 14.421875 3.503906 13.585938 3.503906 12.539062 C 3.503906 11.554688 4.128906 11.128906 4.796875 10.839844 C 5.265625 10.640625 5.875 10.492188 6.597656 10.339844 C 6.066406 9.734375 5.742188 8.972656 5.742188 8.125 C 5.742188 6.949219 6.453125 5.9375 7.476562 5.28125 C 7.503906 4.113281 8.148438 2.855469 8.941406 2.335938 C 9.992188 1.648438 10.898438 1.457031 12.007812 1.609375 C 12.75 0.652344 13.890625 0.0273438 15.175781 0.0234375 Z M 15.175781 1.171875 C 14.109375 1.175781 13.144531 1.703125 12.675781 2.496094 C 12.550781 2.703125 12.304688 2.8125 12.066406 2.765625 C 11.855469 2.71875 11.640625 2.695312 11.425781 2.691406 C 9.941406 2.691406 8.785156 3.664062 8.628906 4.847656 C 8.847656 4.804688 9.066406 4.789062 9.25 4.789062 L 11.554688 4.789062 C 11.570312 4.789062 11.585938 4.789062 11.601562 4.789062 C 12.242188 4.820312 12.191406 5.78125 11.554688 5.746094 L 9.25 5.746094 C 8.039062 5.746094 6.902344 7.09375 6.890625 8.125 C 6.875 9.429688 8.109375 10.550781 9.703125 10.554688 C 10.03125 10.550781 10.363281 10.5 10.671875 10.398438 C 10.660156 10.226562 10.664062 10.050781 10.691406 9.875 C 10.726562 9.667969 10.792969 9.472656 10.871094 9.285156 C 10.121094 9.214844 9.378906 9 8.800781 8.433594 C 8.46875 8.117188 8.730469 7.558594 9.1875 7.609375 C 9.296875 7.625 9.398438 7.671875 9.472656 7.75 C 9.949219 8.214844 10.664062 8.359375 11.503906 8.359375 C 11.511719 8.359375 11.519531 8.359375 11.527344 8.359375 C 12.035156 7.898438 12.714844 7.609375 13.457031 7.597656 C 13.457031 7.597656 13.460938 7.597656 13.464844 7.597656 L 18.945312 7.597656 C 19.457031 7.59375 19.925781 7.394531 20.261719 7.082031 C 20.355469 6.992188 20.480469 6.945312 20.609375 6.953125 C 21.039062 6.96875 21.230469 7.5 20.910156 7.785156 C 20.410156 8.25 19.734375 8.535156 19 8.554688 C 18.984375 8.554688 18.96875 8.554688 18.953125 8.558594 L 13.464844 8.558594 C 12.535156 8.570312 11.765625 9.21875 11.640625 10.023438 C 11.617188 10.160156 11.621094 10.289062 11.636719 10.417969 C 11.699219 10.484375 11.742188 10.566406 11.765625 10.652344 C 11.917969 11.195312 12.277344 11.484375 12.925781 11.707031 C 13.574219 11.929688 14.472656 12.015625 15.417969 12.042969 C 16 12.058594 16.5625 12.140625 17.085938 12.429688 C 17.550781 12.6875 17.957031 13.09375 18.347656 13.65625 C 19.839844 13.617188 21.296875 13.535156 22.636719 13.402344 C 23 13.339844 23.339844 13.238281 23.632812 13.101562 C 24.203125 12.832031 24.585938 12.457031 24.765625 11.875 L 24.765625 11.867188 C 24.835938 11.632812 24.863281 11.390625 24.847656 11.152344 C 24.488281 11.378906 24.082031 11.550781 23.636719 11.65625 C 23.015625 11.804688 22.796875 10.871094 23.417969 10.722656 C 24.820312 10.394531 25.664062 9.25 25.492188 8.0625 C 25.316406 6.875 24.144531 5.929688 22.6875 5.917969 C 22.046875 5.914062 22.054688 4.953125 22.695312 4.960938 C 23.128906 4.960938 23.542969 5.03125 23.9375 5.15625 C 23.78125 4.117188 22.859375 3.234375 21.574219 3.066406 C 21.40625 3.042969 21.261719 2.953125 21.167969 2.816406 C 20.679688 2.082031 19.75 1.597656 18.734375 1.597656 C 18.328125 1.597656 17.925781 1.679688 17.558594 1.828125 C 17.371094 1.902344 17.164062 1.875 17.003906 1.757812 C 16.5 1.386719 15.851562 1.175781 15.175781 1.171875 Z M 28.457031 13.351562 C 28.257812 13.449219 28.039062 13.539062 27.789062 13.625 C 27.050781 13.886719 26.058594 14.128906 24.777344 14.300781 C 19.1875 15.035156 12.730469 15.113281 7.246094 14.171875 C 6.132812 13.980469 5.292969 13.75 4.671875 13.488281 C 4.714844 13.984375 4.804688 14.4375 4.890625 14.882812 C 5.050781 15.726562 5.195312 16.617188 4.777344 17.574219 C 4.121094 19.074219 3.019531 19.808594 2.105469 20.992188 C 1.828125 21.347656 1.894531 21.613281 2.203125 21.726562 L 4.046875 22.417969 C 4.167969 22.460938 4.386719 22.53125 4.585938 22.769531 C 4.785156 23.003906 4.855469 23.417969 4.746094 23.757812 L 4.253906 25.320312 C 4.140625 25.671875 4.25 25.761719 4.578125 25.761719 C 5.019531 25.761719 5.296875 26.238281 5.074219 26.621094 C 4.839844 27.03125 4.808594 27.167969 4.824219 27.269531 C 4.839844 27.375 4.972656 27.625 5.339844 28.101562 C 5.824219 28.730469 5.851562 29.203125 5.902344 29.6875 C 6.007812 30.695312 6.28125 30.933594 6.730469 31.097656 C 7.179688 31.265625 7.933594 31.238281 8.789062 31.222656 C 9.789062 31.207031 10.539062 31.507812 10.953125 32.085938 C 11.367188 32.664062 11.445312 33.34375 11.5625 34.082031 C 11.648438 34.632812 11.808594 34.945312 12.019531 35.148438 C 12.226562 35.351562 12.519531 35.480469 12.976562 35.539062 C 15.945312 35.914062 20.378906 34.84375 22.683594 33.382812 C 23.253906 33.023438 23.613281 32.675781 23.804688 32.367188 C 23.996094 32.058594 24.046875 31.785156 23.992188 31.425781 C 23.785156 30.132812 23.527344 28.945312 23.59375 27.75 C 23.664062 26.554688 24.109375 25.367188 25.222656 24.277344 C 28.1875 21.375 29.171875 17.199219 28.457031 13.351562 Z M 28.457031 13.351562 " fill-opacity="1" fill-rule="evenodd"/></g><path fill="#86cae6" d="M 21.269531 9.539062 C 21.652344 9.554688 21.863281 9.988281 21.640625 10.296875 C 20.871094 11.390625 19.421875 11.699219 18.199219 11.210938 C 17.8125 11.058594 17.496094 10.789062 17.226562 10.566406 C 16.761719 10.113281 17.460938 9.421875 17.910156 9.894531 C 18.078125 10.0625 18.296875 10.210938 18.554688 10.320312 C 19.417969 10.660156 20.367188 10.445312 20.859375 9.75 C 20.949219 9.613281 21.105469 9.535156 21.269531 9.539062 Z M 21.269531 9.539062 " fill-opacity="1" fill-rule="evenodd"/><path fill="#86cae6" d="M 18.707031 3.871094 C 18.992188 3.832031 19.285156 3.871094 19.558594 3.933594 C 20.113281 4.066406 20.617188 4.363281 20.96875 4.839844 C 21.351562 5.355469 20.582031 5.929688 20.199219 5.414062 C 19.785156 4.855469 18.945312 4.671875 18.1875 4.949219 C 17.996094 5.027344 17.828125 5.128906 17.695312 5.246094 C 17.445312 5.46875 17.171875 5.472656 16.933594 5.269531 C 16.789062 5.148438 16.621094 5.035156 16.414062 4.949219 C 15.660156 4.671875 14.816406 4.855469 14.402344 5.414062 C 14.027344 5.964844 13.214844 5.359375 13.636719 4.839844 C 13.992188 4.363281 14.488281 4.042969 15.046875 3.933594 C 15.957031 3.761719 16.582031 3.933594 17.296875 4.347656 C 17.722656 4.042969 18.21875 3.929688 18.707031 3.871094 Z M 18.707031 3.871094 " fill-opacity="1" fill-rule="evenodd"/><g fill="#ffffff" fill-opacity="1"><g transform="translate(35.088681, 25.131018)"><g><path d="M 11.984375 -13.84375 C 12.304688 -13.84375 12.566406 -13.738281 12.765625 -13.53125 C 12.960938 -13.320312 13.0625 -13.054688 13.0625 -12.734375 L 13.0625 -1.203125 C 13.0625 -0.859375 12.941406 -0.570312 12.703125 -0.34375 C 12.472656 -0.113281 12.1875 0 11.84375 0 C 11.675781 0 11.503906 -0.0234375 11.328125 -0.078125 C 11.148438 -0.140625 11.015625 -0.226562 10.921875 -0.34375 L 3.140625 -10.203125 L 3.65625 -10.53125 L 3.65625 -1.109375 C 3.65625 -0.796875 3.550781 -0.53125 3.34375 -0.3125 C 3.144531 -0.101562 2.878906 0 2.546875 0 C 2.234375 0 1.976562 -0.101562 1.78125 -0.3125 C 1.582031 -0.53125 1.484375 -0.796875 1.484375 -1.109375 L 1.484375 -12.640625 C 1.484375 -12.984375 1.597656 -13.269531 1.828125 -13.5 C 2.054688 -13.726562 2.34375 -13.84375 2.6875 -13.84375 C 2.875 -13.84375 3.066406 -13.804688 3.265625 -13.734375 C 3.460938 -13.660156 3.609375 -13.550781 3.703125 -13.40625 L 11.234375 -3.796875 L 10.90625 -3.5625 L 10.90625 -12.734375 C 10.90625 -13.054688 11.003906 -13.320312 11.203125 -13.53125 C 11.398438 -13.738281 11.660156 -13.84375 11.984375 -13.84375 Z M 11.984375 -13.84375 "/></g></g></g><g fill="#ffffff" fill-opacity="1"><g transform="translate(49.63235, 25.131018)"><g><path d="M 6.265625 0.203125 C 5.148438 0.203125 4.175781 -0.03125 3.34375 -0.5 C 2.519531 -0.96875 1.890625 -1.601562 1.453125 -2.40625 C 1.015625 -3.21875 0.796875 -4.128906 0.796875 -5.140625 C 0.796875 -6.328125 1.035156 -7.335938 1.515625 -8.171875 C 1.992188 -9.015625 2.617188 -9.660156 3.390625 -10.109375 C 4.171875 -10.554688 5 -10.78125 5.875 -10.78125 C 6.550781 -10.78125 7.1875 -10.640625 7.78125 -10.359375 C 8.382812 -10.085938 8.914062 -9.707031 9.375 -9.21875 C 9.832031 -8.738281 10.195312 -8.179688 10.46875 -7.546875 C 10.738281 -6.921875 10.875 -6.25 10.875 -5.53125 C 10.863281 -5.21875 10.738281 -4.960938 10.5 -4.765625 C 10.257812 -4.566406 9.984375 -4.46875 9.671875 -4.46875 L 2.109375 -4.46875 L 1.515625 -6.453125 L 8.78125 -6.453125 L 8.34375 -6.046875 L 8.34375 -6.59375 C 8.320312 -6.96875 8.1875 -7.304688 7.9375 -7.609375 C 7.695312 -7.921875 7.394531 -8.164062 7.03125 -8.34375 C 6.664062 -8.519531 6.28125 -8.609375 5.875 -8.609375 C 5.476562 -8.609375 5.109375 -8.550781 4.765625 -8.4375 C 4.421875 -8.332031 4.125 -8.15625 3.875 -7.90625 C 3.625 -7.65625 3.425781 -7.316406 3.28125 -6.890625 C 3.132812 -6.472656 3.0625 -5.941406 3.0625 -5.296875 C 3.0625 -4.585938 3.207031 -3.984375 3.5 -3.484375 C 3.800781 -2.992188 4.1875 -2.617188 4.65625 -2.359375 C 5.125 -2.109375 5.625 -1.984375 6.15625 -1.984375 C 6.644531 -1.984375 7.03125 -2.019531 7.3125 -2.09375 C 7.601562 -2.175781 7.835938 -2.269531 8.015625 -2.375 C 8.191406 -2.488281 8.351562 -2.585938 8.5 -2.671875 C 8.738281 -2.785156 8.960938 -2.84375 9.171875 -2.84375 C 9.460938 -2.84375 9.703125 -2.742188 9.890625 -2.546875 C 10.085938 -2.347656 10.1875 -2.117188 10.1875 -1.859375 C 10.1875 -1.503906 10.003906 -1.179688 9.640625 -0.890625 C 9.296875 -0.597656 8.8125 -0.34375 8.1875 -0.125 C 7.570312 0.09375 6.929688 0.203125 6.265625 0.203125 Z M 6.265625 0.203125 "/></g></g></g><g fill="#ffffff" fill-opacity="1"><g transform="translate(61.306847, 25.131018)"><g><path d="M 9.140625 -10.578125 C 9.484375 -10.578125 9.765625 -10.460938 9.984375 -10.234375 C 10.210938 -10.003906 10.328125 -9.71875 10.328125 -9.375 L 10.328125 -4.359375 C 10.328125 -2.953125 9.9375 -1.835938 9.15625 -1.015625 C 8.375 -0.203125 7.253906 0.203125 5.796875 0.203125 C 4.328125 0.203125 3.207031 -0.203125 2.4375 -1.015625 C 1.664062 -1.835938 1.28125 -2.953125 1.28125 -4.359375 L 1.28125 -9.375 C 1.28125 -9.71875 1.390625 -10.003906 1.609375 -10.234375 C 1.835938 -10.460938 2.125 -10.578125 2.46875 -10.578125 C 2.8125 -10.578125 3.09375 -10.460938 3.3125 -10.234375 C 3.539062 -10.003906 3.65625 -9.71875 3.65625 -9.375 L 3.65625 -4.359375 C 3.65625 -3.546875 3.832031 -2.945312 4.1875 -2.5625 C 4.550781 -2.175781 5.085938 -1.984375 5.796875 -1.984375 C 6.523438 -1.984375 7.066406 -2.175781 7.421875 -2.5625 C 7.773438 -2.945312 7.953125 -3.546875 7.953125 -4.359375 L 7.953125 -9.375 C 7.953125 -9.71875 8.0625 -10.003906 8.28125 -10.234375 C 8.507812 -10.460938 8.796875 -10.578125 9.140625 -10.578125 Z M 9.140625 -10.578125 "/></g></g></g><g fill="#ffffff" fill-opacity="1"><g transform="translate(72.92199, 25.131018)"><g><path d="M 2.46875 0 C 2.125 0 1.835938 -0.113281 1.609375 -0.34375 C 1.390625 -0.570312 1.28125 -0.859375 1.28125 -1.203125 L 1.28125 -9.375 C 1.28125 -9.71875 1.390625 -10.003906 1.609375 -10.234375 C 1.835938 -10.460938 2.125 -10.578125 2.46875 -10.578125 C 2.8125 -10.578125 3.09375 -10.460938 3.3125 -10.234375 C 3.539062 -10.003906 3.65625 -9.71875 3.65625 -9.375 L 3.65625 -7.515625 L 3.515625 -8.84375 C 3.660156 -9.15625 3.847656 -9.429688 4.078125 -9.671875 C 4.316406 -9.921875 4.578125 -10.128906 4.859375 -10.296875 C 5.148438 -10.460938 5.460938 -10.582031 5.796875 -10.65625 C 6.128906 -10.738281 6.457031 -10.78125 6.78125 -10.78125 C 7.175781 -10.78125 7.507812 -10.664062 7.78125 -10.4375 C 8.050781 -10.21875 8.1875 -9.957031 8.1875 -9.65625 C 8.1875 -9.21875 8.070312 -8.898438 7.84375 -8.703125 C 7.625 -8.515625 7.382812 -8.421875 7.125 -8.421875 C 6.875 -8.421875 6.644531 -8.46875 6.4375 -8.5625 C 6.226562 -8.65625 5.992188 -8.703125 5.734375 -8.703125 C 5.492188 -8.703125 5.253906 -8.644531 5.015625 -8.53125 C 4.773438 -8.425781 4.550781 -8.253906 4.34375 -8.015625 C 4.132812 -7.773438 3.96875 -7.476562 3.84375 -7.125 C 3.71875 -6.78125 3.65625 -6.367188 3.65625 -5.890625 L 3.65625 -1.203125 C 3.65625 -0.859375 3.539062 -0.570312 3.3125 -0.34375 C 3.09375 -0.113281 2.8125 0 2.46875 0 Z M 2.46875 0 "/></g></g></g><g fill="#ffffff" fill-opacity="1"><g transform="translate(81.509677, 25.131018)"><g><path d="M 11.546875 -5.28125 C 11.546875 -4.195312 11.304688 -3.242188 10.828125 -2.421875 C 10.347656 -1.597656 9.703125 -0.953125 8.890625 -0.484375 C 8.078125 -0.0234375 7.171875 0.203125 6.171875 0.203125 C 5.171875 0.203125 4.265625 -0.0234375 3.453125 -0.484375 C 2.640625 -0.953125 1.992188 -1.597656 1.515625 -2.421875 C 1.035156 -3.242188 0.796875 -4.195312 0.796875 -5.28125 C 0.796875 -6.363281 1.035156 -7.316406 1.515625 -8.140625 C 1.992188 -8.960938 2.640625 -9.609375 3.453125 -10.078125 C 4.265625 -10.546875 5.171875 -10.78125 6.171875 -10.78125 C 7.171875 -10.78125 8.078125 -10.546875 8.890625 -10.078125 C 9.703125 -9.609375 10.347656 -8.960938 10.828125 -8.140625 C 11.304688 -7.316406 11.546875 -6.363281 11.546875 -5.28125 Z M 9.171875 -5.28125 C 9.171875 -5.957031 9.035156 -6.539062 8.765625 -7.03125 C 8.503906 -7.53125 8.144531 -7.914062 7.6875 -8.1875 C 7.226562 -8.46875 6.722656 -8.609375 6.171875 -8.609375 C 5.617188 -8.609375 5.113281 -8.46875 4.65625 -8.1875 C 4.195312 -7.914062 3.832031 -7.53125 3.5625 -7.03125 C 3.300781 -6.539062 3.171875 -5.957031 3.171875 -5.28125 C 3.171875 -4.625 3.300781 -4.046875 3.5625 -3.546875 C 3.832031 -3.054688 4.195312 -2.671875 4.65625 -2.390625 C 5.113281 -2.117188 5.617188 -1.984375 6.171875 -1.984375 C 6.722656 -1.984375 7.226562 -2.117188 7.6875 -2.390625 C 8.144531 -2.671875 8.503906 -3.054688 8.765625 -3.546875 C 9.035156 -4.046875 9.171875 -4.625 9.171875 -5.28125 Z M 9.171875 -5.28125 "/></g></g></g><g fill="#ffffff" fill-opacity="1"><g transform="translate(93.856945, 25.131018)"><g><path d="M 8.015625 0.203125 C 7.015625 0.203125 6.078125 0.0195312 5.203125 -0.34375 C 4.328125 -0.71875 3.5625 -1.234375 2.90625 -1.890625 C 2.25 -2.546875 1.734375 -3.300781 1.359375 -4.15625 C 0.984375 -5.007812 0.796875 -5.929688 0.796875 -6.921875 C 0.796875 -7.910156 0.984375 -8.832031 1.359375 -9.6875 C 1.734375 -10.550781 2.25 -11.304688 2.90625 -11.953125 C 3.5625 -12.609375 4.328125 -13.117188 5.203125 -13.484375 C 6.078125 -13.859375 7.015625 -14.046875 8.015625 -14.046875 C 8.628906 -14.046875 9.226562 -13.976562 9.8125 -13.84375 C 10.394531 -13.71875 10.925781 -13.519531 11.40625 -13.25 C 11.601562 -13.144531 11.75 -13.003906 11.84375 -12.828125 C 11.945312 -12.648438 12 -12.46875 12 -12.28125 C 12 -11.96875 11.894531 -11.6875 11.6875 -11.4375 C 11.476562 -11.1875 11.207031 -11.0625 10.875 -11.0625 C 10.769531 -11.0625 10.660156 -11.070312 10.546875 -11.09375 C 10.441406 -11.125 10.335938 -11.164062 10.234375 -11.21875 C 9.898438 -11.363281 9.546875 -11.472656 9.171875 -11.546875 C 8.804688 -11.628906 8.421875 -11.671875 8.015625 -11.671875 C 7.148438 -11.671875 6.363281 -11.457031 5.65625 -11.03125 C 4.957031 -10.601562 4.398438 -10.03125 3.984375 -9.3125 C 3.566406 -8.59375 3.359375 -7.796875 3.359375 -6.921875 C 3.359375 -6.066406 3.566406 -5.273438 3.984375 -4.546875 C 4.398438 -3.828125 4.957031 -3.25 5.65625 -2.8125 C 6.363281 -2.382812 7.148438 -2.171875 8.015625 -2.171875 C 8.410156 -2.171875 8.84375 -2.207031 9.3125 -2.28125 C 9.789062 -2.363281 10.179688 -2.472656 10.484375 -2.609375 L 10.3125 -2.015625 L 10.3125 -5.40625 L 10.640625 -5.109375 L 8.453125 -5.109375 C 8.109375 -5.109375 7.816406 -5.21875 7.578125 -5.4375 C 7.347656 -5.664062 7.234375 -5.953125 7.234375 -6.296875 C 7.234375 -6.640625 7.347656 -6.921875 7.578125 -7.140625 C 7.816406 -7.367188 8.109375 -7.484375 8.453125 -7.484375 L 11.6875 -7.484375 C 12.03125 -7.484375 12.3125 -7.363281 12.53125 -7.125 C 12.757812 -6.894531 12.875 -6.609375 12.875 -6.265625 L 12.875 -2.078125 C 12.875 -1.816406 12.8125 -1.597656 12.6875 -1.421875 C 12.5625 -1.253906 12.421875 -1.117188 12.265625 -1.015625 C 11.660156 -0.640625 11 -0.34375 10.28125 -0.125 C 9.5625 0.09375 8.804688 0.203125 8.015625 0.203125 Z M 8.015625 0.203125 "/></g></g></g><g fill="#ffffff" fill-opacity="1"><g transform="translate(107.62891, 25.131018)"><g><path d="M 9.953125 -10.78125 C 10.296875 -10.78125 10.578125 -10.664062 10.796875 -10.4375 C 11.023438 -10.21875 11.140625 -9.929688 11.140625 -9.578125 L 11.140625 -1.203125 C 11.140625 -0.859375 11.023438 -0.570312 10.796875 -0.34375 C 10.578125 -0.113281 10.296875 0 9.953125 0 C 9.609375 0 9.320312 -0.113281 9.09375 -0.34375 C 8.875 -0.570312 8.765625 -0.859375 8.765625 -1.203125 L 8.765625 -2.171875 L 9.203125 -2 C 9.203125 -1.820312 9.109375 -1.613281 8.921875 -1.375 C 8.734375 -1.132812 8.476562 -0.894531 8.15625 -0.65625 C 7.84375 -0.414062 7.472656 -0.210938 7.046875 -0.046875 C 6.617188 0.117188 6.15625 0.203125 5.65625 0.203125 C 4.75 0.203125 3.925781 -0.03125 3.1875 -0.5 C 2.445312 -0.96875 1.863281 -1.613281 1.4375 -2.4375 C 1.007812 -3.257812 0.796875 -4.207031 0.796875 -5.28125 C 0.796875 -6.363281 1.007812 -7.316406 1.4375 -8.140625 C 1.863281 -8.960938 2.4375 -9.609375 3.15625 -10.078125 C 3.882812 -10.546875 4.691406 -10.78125 5.578125 -10.78125 C 6.140625 -10.78125 6.660156 -10.691406 7.140625 -10.515625 C 7.617188 -10.347656 8.03125 -10.128906 8.375 -9.859375 C 8.726562 -9.597656 9 -9.332031 9.1875 -9.0625 C 9.375 -8.800781 9.46875 -8.578125 9.46875 -8.390625 L 8.765625 -8.125 L 8.765625 -9.578125 C 8.765625 -9.921875 8.875 -10.207031 9.09375 -10.4375 C 9.320312 -10.664062 9.609375 -10.78125 9.953125 -10.78125 Z M 5.953125 -1.984375 C 6.535156 -1.984375 7.039062 -2.125 7.46875 -2.40625 C 7.90625 -2.695312 8.242188 -3.09375 8.484375 -3.59375 C 8.734375 -4.101562 8.859375 -4.664062 8.859375 -5.28125 C 8.859375 -5.914062 8.734375 -6.484375 8.484375 -6.984375 C 8.242188 -7.484375 7.90625 -7.878906 7.46875 -8.171875 C 7.039062 -8.460938 6.535156 -8.609375 5.953125 -8.609375 C 5.390625 -8.609375 4.890625 -8.460938 4.453125 -8.171875 C 4.015625 -7.878906 3.671875 -7.484375 3.421875 -6.984375 C 3.179688 -6.484375 3.0625 -5.914062 3.0625 -5.28125 C 3.0625 -4.664062 3.179688 -4.101562 3.421875 -3.59375 C 3.671875 -3.09375 4.015625 -2.695312 4.453125 -2.40625 C 4.890625 -2.125 5.390625 -1.984375 5.953125 -1.984375 Z M 5.953125 -1.984375 "/></g></g></g><g fill="#ffffff" fill-opacity="1"><g transform="translate(120.055334, 25.131018)"><g><path d="M 8.03125 -2.171875 C 8.34375 -2.171875 8.601562 -2.066406 8.8125 -1.859375 C 9.03125 -1.660156 9.140625 -1.40625 9.140625 -1.09375 C 9.140625 -0.789062 9.03125 -0.53125 8.8125 -0.3125 C 8.601562 -0.101562 8.34375 0 8.03125 0 L 1.65625 0 C 1.332031 0 1.070312 -0.117188 0.875 -0.359375 C 0.675781 -0.597656 0.582031 -0.832031 0.59375 -1.0625 C 0.601562 -1.257812 0.628906 -1.429688 0.671875 -1.578125 C 0.710938 -1.734375 0.8125 -1.910156 0.96875 -2.109375 L 5.890625 -8.484375 L 5.859375 -8.203125 L 1.84375 -8.203125 C 1.519531 -8.203125 1.253906 -8.304688 1.046875 -8.515625 C 0.835938 -8.734375 0.734375 -9 0.734375 -9.3125 C 0.734375 -9.613281 0.835938 -9.867188 1.046875 -10.078125 C 1.253906 -10.285156 1.519531 -10.390625 1.84375 -10.390625 L 7.9375 -10.390625 C 8.238281 -10.390625 8.492188 -10.273438 8.703125 -10.046875 C 8.910156 -9.828125 9.003906 -9.546875 8.984375 -9.203125 C 8.972656 -9.066406 8.945312 -8.929688 8.90625 -8.796875 C 8.875 -8.671875 8.785156 -8.515625 8.640625 -8.328125 L 3.796875 -2.0625 L 3.796875 -2.171875 Z M 8.03125 -2.171875 "/></g></g></g><g fill="#ffffff" fill-opacity="1"><g transform="translate(129.632388, 25.131018)"><g><path d="M 6.265625 0.203125 C 5.148438 0.203125 4.175781 -0.03125 3.34375 -0.5 C 2.519531 -0.96875 1.890625 -1.601562 1.453125 -2.40625 C 1.015625 -3.21875 0.796875 -4.128906 0.796875 -5.140625 C 0.796875 -6.328125 1.035156 -7.335938 1.515625 -8.171875 C 1.992188 -9.015625 2.617188 -9.660156 3.390625 -10.109375 C 4.171875 -10.554688 5 -10.78125 5.875 -10.78125 C 6.550781 -10.78125 7.1875 -10.640625 7.78125 -10.359375 C 8.382812 -10.085938 8.914062 -9.707031 9.375 -9.21875 C 9.832031 -8.738281 10.195312 -8.179688 10.46875 -7.546875 C 10.738281 -6.921875 10.875 -6.25 10.875 -5.53125 C 10.863281 -5.21875 10.738281 -4.960938 10.5 -4.765625 C 10.257812 -4.566406 9.984375 -4.46875 9.671875 -4.46875 L 2.109375 -4.46875 L 1.515625 -6.453125 L 8.78125 -6.453125 L 8.34375 -6.046875 L 8.34375 -6.59375 C 8.320312 -6.96875 8.1875 -7.304688 7.9375 -7.609375 C 7.695312 -7.921875 7.394531 -8.164062 7.03125 -8.34375 C 6.664062 -8.519531 6.28125 -8.609375 5.875 -8.609375 C 5.476562 -8.609375 5.109375 -8.550781 4.765625 -8.4375 C 4.421875 -8.332031 4.125 -8.15625 3.875 -7.90625 C 3.625 -7.65625 3.425781 -7.316406 3.28125 -6.890625 C 3.132812 -6.472656 3.0625 -5.941406 3.0625 -5.296875 C 3.0625 -4.585938 3.207031 -3.984375 3.5 -3.484375 C 3.800781 -2.992188 4.1875 -2.617188 4.65625 -2.359375 C 5.125 -2.109375 5.625 -1.984375 6.15625 -1.984375 C 6.644531 -1.984375 7.03125 -2.019531 7.3125 -2.09375 C 7.601562 -2.175781 7.835938 -2.269531 8.015625 -2.375 C 8.191406 -2.488281 8.351562 -2.585938 8.5 -2.671875 C 8.738281 -2.785156 8.960938 -2.84375 9.171875 -2.84375 C 9.460938 -2.84375 9.703125 -2.742188 9.890625 -2.546875 C 10.085938 -2.347656 10.1875 -2.117188 10.1875 -1.859375 C 10.1875 -1.503906 10.003906 -1.179688 9.640625 -0.890625 C 9.296875 -0.597656 8.8125 -0.34375 8.1875 -0.125 C 7.570312 0.09375 6.929688 0.203125 6.265625 0.203125 Z M 6.265625 0.203125 "/></g></g></g></svg>